<?xml version="1.0" encoding="utf-8"?>
<!-- Generator: Adobe Illustrator 23.0.1, SVG Export Plug-In . SVG Version: 6.00 Build 0)  -->
<svg version="1.1" id="Calque_1" xmlns="http://www.w3.org/2000/svg" xmlns:xlink="http://www.w3.org/1999/xlink" x="0px" y="0px"
	 viewBox="0 0 566.93 81.56" style="enable-background:new 0 0 566.93 81.56;" xml:space="preserve">
<style type="text/css">
	.st0{clip-path:url(#SVGID_2_);fill:#1D1D1B;}
	.st1{fill:#FFFFFF;}
	.st2{fill:#1D1D1B;}
	.st3{fill:#236092;}
	.st4{clip-path:url(#SVGID_4_);fill:#236092;}
	.st5{clip-path:url(#SVGID_4_);fill:#1D1D1B;}
</style>
<g>
	<defs>
		<rect id="SVGID_1_" x="51.74" y="8.68" width="463.44" height="65.46"/>
	</defs>
	<clipPath id="SVGID_2_">
		<use xlink:href="#SVGID_1_"  style="overflow:visible;"/>
	</clipPath>
	<path class="st0" d="M328.09,24.1c0.27,0.51,0.91,0.38,1.43,0.36c0.26-0.01,0.52,0.23,0.78,0.23c0.77,0.11,1.54,0.1,2.43,0.2
		c0.78,0.12,1.55,0.23,2.33,0.34c1.8,0.08,3.47,0.17,5.28,0.26c2.7,0.06,5.52-0.51,8.21-0.97c0.26,0,0.77,0.12,0.9-0.28
		c-3.34-0.05-6.8,0.68-10.54,0.5c-3.59-0.04-7.33-0.85-10.04-0.79C328.61,23.96,328.22,23.59,328.09,24.1"/>
	<path class="st0" d="M367.99,26.03c0.12-0.14,0.51-0.01,0.64-0.15c0.26,0,0.27,0.51,0.51,0.25c0.13-0.26-0.51-0.25-0.65-0.63
		c-1.41-0.23-2.71-0.72-3.63-1.6c0-0.12-0.14,0-0.14,0C363.6,25.09,367.08,25.65,367.99,26.03"/>
	<path class="st0" d="M401.1,24.37c0.4,0.37,1.05,0.48,1.69,0.73c1.68,0.6,3.61,0.94,5.56,1.55c0.25,0,0.39,0.11,0.65,0.23
		c2.84,0.72,6.59,1.53,10.06,1.71c0.52-0.01,1.17,0.22,1.68-0.17c-0.41-0.5-1.17-0.35-1.69-0.34c-1.93-0.22-4.12-0.42-5.93-0.77
		c-2.2-0.59-4.78-1.18-7.11-1.77c-0.77-0.24-1.56-0.61-2.32-0.73c-0.9-0.1-1.81-0.22-2.46-0.58C401.1,24.23,401.1,24.37,401.1,24.37
		"/>
	<path class="st0" d="M331.26,27.38c0.53,0.37,1.17,0.49,1.81,0.48c2.71,0.46,6.06,0.77,8.88,0.44c0.26,0,0.38-0.13,0.64-0.13
		c0.52-0.01,1.29,0.22,1.41-0.29c-0.79-0.38-1.55-0.23-2.45-0.2c-2.58,0.18-5.27,0.12-7.85-0.34c-0.65-0.11-1.29-0.35-1.93-0.34
		C331.5,26.98,331.38,26.98,331.26,27.38"/>
	<path class="st0" d="M394.47,26.19c-0.13,0-0.26,0.13-0.39,0.13c0.53,0.39,1.18,0.49,1.96,0.73c1.93,0.47,4.14,1.19,6.2,1.52
		c3.11,0.97,6.32,1.16,9.8,1.58c0.4,0.12,0.78,0.24,1.16,0.11c-0.14-0.64-0.91-0.5-1.43-0.49c-1.29-0.23-2.96-0.45-4.51-0.68
		c-0.52-0.11-1.16-0.1-1.55-0.34c-0.26,0-0.26,0.14-0.38,0.14c-1.82-0.6-3.63-0.96-5.56-1.3c-0.9-0.24-1.82-0.73-2.72-0.96
		C396.14,26.53,395.25,26.81,394.47,26.19"/>
	<path class="st0" d="M480.74,27.95c1.67-0.42,3.46-0.98,5.25-1.41c1.92-0.43,3.71-0.86,5.35-1.54c0-0.12,0-0.12,0-0.24h-0.12
		c-1.8,0.04-3.21,0.58-4.6,1.13c-1.42-0.11-2.31,0.57-3.71,0.73C482.26,27.01,480.72,27.05,480.74,27.95"/>
	<path class="st0" d="M387.96,28.53c-0.12,0.26,0.14,0.13,0.39,0.12C388.48,28.39,387.96,28.26,387.96,28.53"/>
	<path class="st0" d="M388.6,28.65c-0.24,0.39,0.52,0.23,0.67,0.49c1.29-0.03,2.44,0.59,3.49,0.82c0.9,0.24,1.93,0.22,2.84,0.58
		c3.1,0.57,6.32,1.14,9.81,1.58c0.38-0.01,0.77,0.11,1.15,0.1c0.65,0.12,1.3,0.37,1.94,0.09c-0.26-0.25-0.78-0.11-1.3-0.23
		c-0.39-0.11-0.77-0.36-1.15-0.23c-2.2-0.59-4.65-0.79-6.97-1.13c-1.41-0.35-2.97-0.7-4.51-0.92c-1.55-0.36-3.1-0.84-4.79-1.18
		c-0.26,0.01-0.25,0.13-0.5,0.14c-0.26,0-0.39-0.11-0.52-0.25C388.6,28.51,388.6,28.65,388.6,28.65"/>
	<path class="st0" d="M335.82,29.98c-0.26-0.12-0.12,0.12-0.26,0.13c0.66,0.63,2.2,0.47,3.24,0.83c0.12-0.01,0.12-0.13,0.38-0.13
		c1.68,0.48,3.86,0.55,5.92,0.51c0.78-0.02,1.8-0.04,2.56-0.18c0.64-0.01,1.54-0.17,1.92-0.7c-0.52-0.24-1.54,0.03-2.06,0.05
		c-2.31,0.31-4.62,0.1-6.68,0.15c-1.55-0.35-3.1-0.57-4.64-0.4C336.08,30.1,335.94,29.98,335.82,29.98"/>
	<path class="st0" d="M376.18,30.22c0.65,0.49,1.68,0.47,2.58,0.58c3.49,0.43,6.72,1.65,10.2,2.08c-1.04-0.88-2.97-0.96-4.66-1.44
		c-0.39-0.11-0.65-0.24-1.29-0.23c-1.16-0.22-2.2-0.72-3.37-0.95c-0.64-0.11-1.54,0.04-2.44-0.07
		C376.95,30.2,376.56,30.07,376.18,30.22"/>
	<path class="st0" d="M334.87,33.35c0.27,0.38,0.9,0.24,1.29,0.35c3.09,0.31,6.19,0.89,9.4,1.07c0.39-0.01,0.78-0.02,1.16-0.02
		c3.61,0.17,7.34,0.61,11.06,0.26c0.91,0.24,1.66-0.17,2.56-0.19c1.68-0.04,3.6-0.33,5.25-0.62c0.25-0.14,0.51-0.27,0.64-0.28
		c0.9-0.14,1.68,0.09,2.18-0.43c-0.14-0.51-1.17-0.49-1.81-0.48c0,0.26,0.39,0.25,0.51,0.38c-0.51,0.14-1.02,0.16-1.4,0.29
		c-2.06-0.08-4.23,0.62-6.41,0.79c-1.02,0.02-2.7,0.06-4.11,0.09c-0.64-0.11-1.42-0.23-2.06,0.05c-1.03-0.35-2.06-0.08-3.22-0.18
		c-0.39,0.01-0.89-0.1-1.29-0.22c-2.05-0.09-3.85-0.17-5.78-0.39c-0.66,0.01-1.3-0.11-1.94-0.09c-1.29-0.22-2.58-0.45-3.86-0.55
		c-0.64-0.11-1.29-0.1-1.93-0.34C334.99,32.97,334.73,33.22,334.87,33.35"/>
	<path class="st0" d="M342.78,36.65c0.27,0.51,0.9,0.24,1.29,0.23c1.94,0.08,4.38,0.42,6.31,0.11c0.9,0.24,2.45,0.33,3.34,0.05
		c2.31,0.08,5.28,0.26,7.83,0.08c1.42-0.16,2.82-0.33,4.24-0.35c0.77-0.02,1.4-0.29,2.18-0.31c1.54-0.16,2.94-0.19,4.48-0.36
		c1.41-0.16,2.83-0.19,4.23-0.48c-0.78-0.49-2.58-0.32-3.86-0.29c-0.77,0.14-1.54,0.16-2.18,0.31c-0.39,0.01-0.77,0.14-1.15,0.29
		c-1.02,0.02-2.19,0.05-3.34,0.2c-4.1,0.36-8.46,0.45-12.45,0.41c-1.3-0.1-2.83,0.06-4.11,0.09c-0.51-0.11-1.03-0.1-1.55-0.09
		c-0.64,0.02-1.28,0.16-1.8-0.08C345.1,36.72,343.54,35.99,342.78,36.65"/>
	<path class="st0" d="M367.51,38.79c0.27,0.38,0.64,0.11,1.04,0.1c0.51-0.01,1.15,0.11,1.67,0.1c1.8-0.04,3.72-0.22,5.38-0.52
		c0.9-0.02,1.8-0.29,2.57-0.44c2.18-0.17,4.48-0.62,6.79-1.06c0.38,0,0.9-0.14,1.41-0.29c0.39-0.01,0.89-0.14,1.13-0.54
		c-0.39-0.25-0.9,0.02-1.4,0.16c-1.28,0.17-2.83,0.45-4.23,0.74c-1.02,0.16-2.19,0.05-2.95,0.45c-2.31,0.05-4.87,0.51-7.3,0.82
		c-0.39,0.01-0.9,0.15-1.42,0.03c-0.12,0-0.26-0.13-0.52-0.12c-0.26,0-0.5,0.27-0.76,0.28C368.4,38.63,367.88,38.4,367.51,38.79"/>
	<path class="st0" d="M390.05,38.06c2.55,0.06,4.91-0.96,7.3-1.98c2.09-0.89,4.16-1.89,6.35-2.51c2.89-0.82,5.8-0.14,8.66,0.5
		c2.71,0.61,5.42,1.26,8.18,1.61c1.46,0.18,3.02-0.23,4.53-0.39c0.17-0.02,0.32-0.21,0.47-0.31c-0.17-0.01-0.34-0.06-0.51-0.03
		c-2.96,0.51-5.69-0.23-8.45-1.11c-3-0.95-6.03-1.88-9.11-2.58c-2.57-0.58-5.14-0.12-7.56,0.85c-1.88,0.75-3.73,1.56-5.57,2.4
		c-3.55,1.62-7.09,1.56-10.57-0.09c-2.59-1.24-5.1-2.61-7.67-3.88c-0.81-0.4-1.71-0.67-2.57-0.99c0.7,0.52,1.39,1.06,2.1,1.58
		c1.63,1.19,3.26,2.39,4.91,3.55C383.3,36.61,386.28,38.05,390.05,38.06"/>
	<path class="st0" d="M422.48,30.93c1.95-0.52,3.91-1.01,5.84-1.59c1.44-0.44,2.79-1.14,4.25-1.52c2.59-0.66,5.11-0.05,7.56,0.75
		c0.41,0.13,0.81,0.3,1.22,0.44c0.1,0.04,0.23,0.01,0.35,0.01c-0.05-0.1-0.07-0.22-0.14-0.3c-2.04-2.46-7.75-3.99-11.16-2.93
		c-1.18,0.37-2.3,0.94-3.45,1.41c-2.22,0.91-4.44,1.81-6.65,2.73c-0.22,0.09-0.4,0.23-0.6,0.35c0.2,0.06,0.4,0.15,0.61,0.17
		c0.69,0.08,1.39,0.15,2.08,0.22C422.41,30.77,422.45,30.85,422.48,30.93"/>
	<path class="st0" d="M364.14,31.84c3.69-0.63,7.1,0.64,9.93,3.37c0.14,0.13,0.35,0.21,0.52,0.31c-0.03-0.22-0.02-0.45-0.11-0.66
		c-1.53-3.32-5.6-6.85-11.56-5.36c-1.88,0.47-3.83,0.73-5.74,1.1c-0.14,0.03-0.26,0.12-0.39,0.19c0.11,0.11,0.21,0.27,0.34,0.32
		c0.86,0.26,1.72,0.62,2.61,0.7C361.04,31.93,362.36,31.84,364.14,31.84"/>
	<path class="st0" d="M393.82,43.83c0.39,0,0.66,0.05,0.9-0.01c1.57-0.34,3.12-0.75,4.7-1.06c3.58-0.7,7.04-0.34,10.41,0.95
		c0.18,0.07,0.4,0.06,0.6,0.1c-0.09-0.16-0.14-0.35-0.28-0.47c-4.76-4.32-10.81-4.79-15.69-0.18
		C394.28,43.33,394.12,43.52,393.82,43.83"/>
	<path class="st0" d="M420.73,41.42c0.78-0.09,1.56-0.16,2.33-0.27c0.18-0.02,0.35-0.16,0.53-0.23c-0.19-0.09-0.38-0.17-0.57-0.25
		c-2.1-0.85-4.24-1.62-6.3-2.55c-2.18-0.99-4.37-1.87-6.86-1.66c-0.77,0.06-1.49,0.53-2.22,0.84c-0.11,0.05-0.14,0.26-0.21,0.39
		c0.16,0.02,0.32,0.03,0.47,0.06c1.04,0.23,2.12,0.35,3.1,0.7c1.78,0.65,3.45,1.53,5.25,2.13c1.41,0.46,2.94,0.65,4.41,0.96
		C420.69,41.51,420.71,41.46,420.73,41.42"/>
	<path class="st0" d="M386.17,43.05c1.6-0.48,3.21-0.93,4.79-1.45c0.36-0.12,0.62-0.46,0.94-0.7c-0.37-0.05-0.74-0.1-1.11-0.14
		c-2.34-0.25-4.69-0.43-7.01-0.79c-1.1-0.17-2.13-0.69-3.19-1.04c-0.19-0.06-0.39-0.09-0.59-0.13c-0.01,0.19-0.12,0.43-0.03,0.56
		c0.54,0.75,1,1.59,1.72,2.17c1.21,0.98,2.76,1.31,4.39,1.24C386.1,42.86,386.13,42.95,386.17,43.05"/>
</g>
<rect x="51.94" y="10.07" class="st1" width="463.23" height="61.63"/>
<rect x="51.94" y="8.68" class="st2" width="463.23" height="2.79"/>
<rect x="330.26" y="71.35" class="st3" width="184.92" height="2.79"/>
<g>
	<defs>
		<rect id="SVGID_3_" x="51.74" y="8.68" width="463.44" height="65.46"/>
	</defs>
	<clipPath id="SVGID_4_">
		<use xlink:href="#SVGID_3_"  style="overflow:visible;"/>
	</clipPath>
	<path class="st4" d="M330.46,33.61v20.41c0,0.31,0.25,0.58,0.56,0.58h7.52c5.95,0,10.82-4.83,10.82-10.82
		c0-5.92-4.87-10.76-10.82-10.76h-7.52C330.71,33.02,330.46,33.3,330.46,33.61 M338.51,50.04h-3.24V37.55h3.24
		c3.49,0,5.74,2.75,5.74,6.23C344.24,47.3,341.99,50.04,338.51,50.04 M359.61,33.61v20.41c0,0.31,0.24,0.58,0.58,0.58h12.76
		c0.34,0,0.58-0.28,0.58-0.58v-3.36c0-0.31-0.24-0.58-0.58-0.58h-8.54V45.9h7.03c0.31,0,0.59-0.24,0.59-0.58v-3.36
		c0-0.31-0.28-0.59-0.59-0.59h-7.03v-3.83h8.54c0.34,0,0.58-0.28,0.58-0.59v-3.36c0-0.31-0.24-0.59-0.58-0.59H360.2
		C359.86,33.02,359.61,33.3,359.61,33.61 M392.38,43.84c0,6.17,4.93,11.04,11.07,11.04c4.47,0,7.65-2,7.65-2
		c0.12-0.09,0.24-0.22,0.24-0.49l-0.03-8.29c0-0.31-0.25-0.58-0.56-0.58h-6.2c-0.34,0-0.59,0.24-0.59,0.58v3.05
		c0,0.31,0.25,0.56,0.59,0.56h1.95v1.79c-0.93,0.37-1.86,0.5-2.75,0.5c-3.37,0-6.11-2.78-6.11-6.14c0-3.39,2.71-6.23,6.08-6.23
		c1.51,0,2.87,0.4,4.04,1.48c0.25,0.18,0.59,0.18,0.84-0.03l2.43-2.59c0.25-0.24,0.22-0.62-0.06-0.83c-2.09-1.82-4.93-2.9-7.52-2.9
		C397.31,32.74,392.38,37.67,392.38,43.84 M426.34,31.11l3.08-1.79l3.05,1.79c0.22,0.12,0.49,0.06,0.64-0.15l1.05-1.42
		c0.12-0.24-0.03-0.46-0.19-0.59l-4.25-3.21c-0.18-0.12-0.5-0.18-0.74,0l-4.16,3.21c-0.16,0.12-0.34,0.37-0.19,0.59l1.02,1.45
		C425.84,31.23,426,31.3,426.34,31.11 M422.27,33.61v20.41c0,0.31,0.25,0.58,0.59,0.58h12.76c0.34,0,0.58-0.28,0.58-0.58v-3.36
		c0-0.31-0.25-0.58-0.58-0.58h-8.54V45.9h7.03c0.31,0,0.58-0.24,0.58-0.58v-3.36c0-0.31-0.28-0.59-0.58-0.59h-7.03v-3.83h8.54
		c0.34,0,0.58-0.28,0.58-0.59v-3.36c0-0.31-0.25-0.59-0.58-0.59h-12.76C422.52,33.02,422.27,33.3,422.27,33.61 M446.91,33.27
		l0.03,20.74c0,0.31,0.28,0.58,0.58,0.58h3.66c0.34,0,0.59-0.28,0.59-0.58v-11.5h0.03l12,12.06c0.25,0.25,0.46,0.34,0.77,0.34h0.31
		c0.31,0,0.58-0.18,0.58-0.56V33.61c0-0.31-0.28-0.59-0.58-0.59h-3.7c-0.34,0-0.59,0.28-0.59,0.59v10.94h-0.03l-11.84-11.37
		c-0.25-0.25-0.46-0.46-0.77-0.46h-0.46C447.19,32.71,446.91,32.96,446.91,33.27 M477,33.61v20.41c0,0.31,0.24,0.58,0.58,0.58h12.76
		c0.34,0,0.59-0.28,0.59-0.58v-3.36c0-0.31-0.25-0.58-0.59-0.58h-8.54V45.9h7.03c0.31,0,0.59-0.24,0.59-0.58v-3.36
		c0-0.31-0.28-0.59-0.59-0.59h-7.03v-3.83h8.54c0.34,0,0.59-0.28,0.59-0.59v-3.36c0-0.31-0.25-0.59-0.59-0.59h-12.76
		C477.25,33.02,477,33.3,477,33.61 M507.7,54.91c4.53,0,7.27-3.21,7.27-6.38c0-4.2-3.51-5.71-6.23-7.04
		c-2.16-1.05-3.36-1.85-3.36-2.87c0-0.9,0.59-1.69,1.88-1.69c1.63,0,3.45,1.17,4.16,1.66c0.62,0.37,1.14,0.12,1.36-0.22l1.57-2.37
		c0.13-0.22,0.19-0.77-0.18-0.98c-0.92-0.68-3.39-2.31-6.59-2.31c-4.75,0-7.12,3.08-7.12,6.13c0,3.7,2.99,5.37,5.98,6.82
		c2.04,0.99,3.18,1.82,3.18,3.11c0,1.08-0.9,1.86-2.13,1.86c-1.95,0-3.52-1.11-4.38-1.7c-0.31-0.22-0.8-0.22-1.05,0.19l-1.41,2.49
		c-0.22,0.4-0.12,0.68,0.12,0.93C501.47,53.24,503.69,54.91,507.7,54.91"/>
	<path class="st5" d="M51.74,33.76v20.26c0,0.3,0.25,0.58,0.58,0.58h1.98c0.31,0,0.58-0.28,0.58-0.58v-8.05h8.17
		c0.31,0,0.58-0.28,0.58-0.58v-1.69c0-0.3-0.28-0.58-0.58-0.58h-8.17v-7.08h9.67c0.34,0,0.58-0.28,0.58-0.58v-1.71
		c0-0.3-0.25-0.58-0.58-0.58H52.32C51.99,33.18,51.74,33.46,51.74,33.76 M78.14,33.76v20.26c0,0.3,0.28,0.58,0.58,0.58h2.02
		c0.3,0,0.58-0.28,0.58-0.58V33.76c0-0.3-0.28-0.58-0.58-0.58h-2.02C78.42,33.18,78.14,33.46,78.14,33.76 M96.52,33.43v20.6
		c0,0.3,0.28,0.58,0.58,0.58h1.93c0.34,0,0.58-0.28,0.58-0.58v-14.9h0.06l12.89,15.36c0.37,0.43,0.58,0.43,0.89,0.43h0.27
		c0.31,0,0.58-0.24,0.58-0.55v-20.6c0-0.3-0.28-0.58-0.58-0.58h-1.95c-0.34,0-0.58,0.28-0.58,0.58v14.48h-0.06l-12.86-14.9
		c-0.39-0.46-0.61-0.46-0.91-0.46H97.1C96.79,32.87,96.52,33.12,96.52,33.43 M127.49,54.6h1.93c0.36,0,0.61-0.24,0.7-0.45l1.86-4.2
		h10.01l1.9,4.2c0.12,0.27,0.34,0.45,0.7,0.45h1.93c0.46,0,0.7-0.39,0.52-0.79l-9.33-20.6c-0.09-0.18-0.37-0.34-0.52-0.34h-0.3
		c-0.15,0-0.43,0.15-0.52,0.34l-9.4,20.6C126.78,54.21,127.03,54.6,127.49,54.6 M140.83,47.32h-7.65l3.73-8.39h0.15L140.83,47.32z
		 M159.72,33.43v20.6c0,0.3,0.28,0.58,0.58,0.58h1.92c0.34,0,0.58-0.28,0.58-0.58v-14.9h0.06l12.89,15.36
		c0.36,0.43,0.58,0.43,0.88,0.43h0.28c0.3,0,0.58-0.24,0.58-0.55v-20.6c0-0.3-0.28-0.58-0.58-0.58h-1.96
		c-0.34,0-0.58,0.28-0.58,0.58v14.48h-0.06l-12.86-14.9c-0.4-0.46-0.61-0.46-0.92-0.46h-0.24C160,32.87,159.72,33.12,159.72,33.43
		 M191.41,43.92c0,6.12,4.93,10.99,11.04,10.99c2.73,0,5.36-0.95,7.44-2.97c0.21-0.21,0.27-0.61,0.03-0.83l-1.41-1.37
		c-0.18-0.16-0.46-0.19-0.73,0.03c-1.47,1.13-3.03,2.02-5.26,2.02c-4.38,0-7.72-3.64-7.72-7.93c0-4.28,3.31-7.96,7.68-7.96
		c1.9,0,3.86,0.79,5.3,2.05c0.28,0.28,0.56,0.28,0.77,0l1.35-1.38c0.24-0.24,0.24-0.61-0.03-0.85c-2.08-1.8-4.32-2.84-7.41-2.84
		C196.34,32.87,191.41,37.8,191.41,43.92 M223.56,33.76v20.26c0,0.3,0.28,0.58,0.58,0.58h2.02c0.3,0,0.58-0.28,0.58-0.58V33.76
		c0-0.3-0.28-0.58-0.58-0.58h-2.02C223.84,33.18,223.56,33.46,223.56,33.76 M245.52,28.71l5.14,2.2c0.43,0.18,0.62,0.12,0.73-0.15
		l0.43-0.86c0.12-0.24,0-0.49-0.18-0.58l-4.81-2.79c-0.18-0.12-0.64-0.18-0.79,0.09l-0.7,1.35
		C245.18,28.28,245.27,28.59,245.52,28.71 M241.94,33.76v20.26c0,0.3,0.24,0.58,0.58,0.58h12.24c0.34,0,0.58-0.28,0.58-0.58v-1.68
		c0-0.3-0.24-0.58-0.58-0.58h-9.67v-6.58h8.17c0.31,0,0.58-0.25,0.58-0.58v-1.71c0-0.31-0.28-0.58-0.58-0.58h-8.17v-6.25h9.67
		c0.34,0,0.58-0.28,0.58-0.58v-1.71c0-0.3-0.24-0.58-0.58-0.58h-12.24C242.19,33.18,241.94,33.46,241.94,33.76 M284.49,53.71
		l-3.55-4.96c1.93-1.62,3.15-4.04,3.15-6.76c0-4.87-3.94-8.81-8.82-8.81h-4.59h-0.83c-0.31,0-0.58,0.28-0.58,0.58v20.26
		c0,0.3,0.27,0.58,0.58,0.58h1.99c0.3,0,0.58-0.28,0.58-0.58v-3.21h2.85c1.01,0,1.99-0.16,2.88-0.49l2.82,3.89
		c0.15,0.24,0.37,0.39,0.7,0.39h2.42C284.61,54.6,284.77,54.11,284.49,53.71 M272.43,47.63v-11.3h2.85c3.12,0,5.63,2.54,5.63,5.67
		c0,3.12-2.51,5.63-5.63,5.63H272.43z M298.53,33.76v20.26c0,0.3,0.24,0.58,0.58,0.58h12.24c0.34,0,0.58-0.28,0.58-0.58v-1.68
		c0-0.3-0.24-0.58-0.58-0.58h-9.68v-6.58h8.17c0.31,0,0.58-0.25,0.58-0.58v-1.71c0-0.31-0.28-0.58-0.58-0.58h-8.17v-6.25h9.68
		c0.34,0,0.58-0.28,0.58-0.58v-1.71c0-0.3-0.24-0.58-0.58-0.58h-12.24C298.78,33.18,298.53,33.46,298.53,33.76"/>
</g>
<rect x="51.9" y="71.35" class="st2" width="278.36" height="2.79"/>
</svg>
